<mxfile host="app.diagrams.net" agent="Mozilla/5.0 (Windows NT 10.0; Win64; x64) AppleWebKit/537.36 (KHTML, like Gecko) Chrome/129.0.0.0 Safari/537.36" version="24.7.17">
  <diagram name="Page-1" id="-_KTBW4BYFfM2nRhgjh7">
    <mxGraphModel dx="1216" dy="541" grid="1" gridSize="10" guides="1" tooltips="1" connect="1" arrows="1" fold="1" page="1" pageScale="1" pageWidth="850" pageHeight="1100" math="0" shadow="0">
      <root>
        <mxCell id="0" />
        <mxCell id="1" parent="0" />
        <mxCell id="YH-CRLP42BkAAgdWbxsX-3" value="Signature&amp;nbsp;&lt;div&gt;Validation&lt;/div&gt;&lt;div&gt;0.4.1&lt;/div&gt;" style="ellipse;whiteSpace=wrap;html=1;aspect=fixed;labelBackgroundColor=none;fillColor=#FAE5C7;strokeColor=#0F8B8D;fontColor=#143642;" vertex="1" parent="1">
          <mxGeometry x="70" y="460" width="90" height="90" as="geometry" />
        </mxCell>
        <mxCell id="YH-CRLP42BkAAgdWbxsX-10" value="Nonce and Balance verification&lt;div&gt;0.4.2&lt;/div&gt;" style="ellipse;whiteSpace=wrap;html=1;aspect=fixed;labelBackgroundColor=none;fillColor=#FAE5C7;strokeColor=#0F8B8D;fontColor=#143642;" vertex="1" parent="1">
          <mxGeometry x="230" y="560" width="90" height="90" as="geometry" />
        </mxCell>
        <mxCell id="YH-CRLP42BkAAgdWbxsX-16" style="edgeStyle=orthogonalEdgeStyle;rounded=0;orthogonalLoop=1;jettySize=auto;html=1;exitX=1;exitY=0.5;exitDx=0;exitDy=0;entryX=0;entryY=0.5;entryDx=0;entryDy=0;" edge="1" parent="1" source="YH-CRLP42BkAAgdWbxsX-11" target="YH-CRLP42BkAAgdWbxsX-12">
          <mxGeometry relative="1" as="geometry" />
        </mxCell>
        <mxCell id="YH-CRLP42BkAAgdWbxsX-11" value="Balance Check&lt;br&gt;0.4.3" style="ellipse;whiteSpace=wrap;html=1;aspect=fixed;labelBackgroundColor=none;fillColor=#FAE5C7;strokeColor=#0F8B8D;fontColor=#143642;" vertex="1" parent="1">
          <mxGeometry x="400" y="550" width="90" height="90" as="geometry" />
        </mxCell>
        <mxCell id="YH-CRLP42BkAAgdWbxsX-12" value="Execute transaction&lt;br&gt;0.4.4" style="ellipse;whiteSpace=wrap;html=1;aspect=fixed;labelBackgroundColor=none;fillColor=#FAE5C7;strokeColor=#0F8B8D;fontColor=#143642;" vertex="1" parent="1">
          <mxGeometry x="550" y="550" width="90" height="90" as="geometry" />
        </mxCell>
        <mxCell id="YH-CRLP42BkAAgdWbxsX-13" value="Update States&lt;div&gt;0.4.5&lt;/div&gt;" style="ellipse;whiteSpace=wrap;html=1;aspect=fixed;labelBackgroundColor=none;fillColor=#FAE5C7;strokeColor=#0F8B8D;fontColor=#143642;" vertex="1" parent="1">
          <mxGeometry x="540" y="720" width="90" height="90" as="geometry" />
        </mxCell>
        <mxCell id="YH-CRLP42BkAAgdWbxsX-14" style="edgeStyle=orthogonalEdgeStyle;rounded=0;orthogonalLoop=1;jettySize=auto;html=1;exitX=0.5;exitY=1;exitDx=0;exitDy=0;entryX=0.593;entryY=-0.024;entryDx=0;entryDy=0;entryPerimeter=0;" edge="1" parent="1" source="YH-CRLP42BkAAgdWbxsX-3" target="YH-CRLP42BkAAgdWbxsX-10">
          <mxGeometry relative="1" as="geometry" />
        </mxCell>
        <mxCell id="YH-CRLP42BkAAgdWbxsX-15" style="edgeStyle=orthogonalEdgeStyle;rounded=0;orthogonalLoop=1;jettySize=auto;html=1;exitX=1;exitY=0.5;exitDx=0;exitDy=0;entryX=-0.027;entryY=0.642;entryDx=0;entryDy=0;entryPerimeter=0;" edge="1" parent="1" source="YH-CRLP42BkAAgdWbxsX-10" target="YH-CRLP42BkAAgdWbxsX-11">
          <mxGeometry relative="1" as="geometry" />
        </mxCell>
        <mxCell id="YH-CRLP42BkAAgdWbxsX-17" style="edgeStyle=orthogonalEdgeStyle;rounded=0;orthogonalLoop=1;jettySize=auto;html=1;exitX=0.5;exitY=1;exitDx=0;exitDy=0;entryX=0.626;entryY=-0.018;entryDx=0;entryDy=0;entryPerimeter=0;" edge="1" parent="1" source="YH-CRLP42BkAAgdWbxsX-12" target="YH-CRLP42BkAAgdWbxsX-13">
          <mxGeometry relative="1" as="geometry" />
        </mxCell>
        <mxCell id="YH-CRLP42BkAAgdWbxsX-19" style="edgeStyle=orthogonalEdgeStyle;rounded=0;orthogonalLoop=1;jettySize=auto;html=1;exitX=1;exitY=0.5;exitDx=0;exitDy=0;entryX=0.019;entryY=0.464;entryDx=0;entryDy=0;entryPerimeter=0;" edge="1" parent="1" source="YH-CRLP42BkAAgdWbxsX-13">
          <mxGeometry relative="1" as="geometry">
            <mxPoint x="702.28" y="717.8399999999999" as="targetPoint" />
          </mxGeometry>
        </mxCell>
        <mxCell id="YH-CRLP42BkAAgdWbxsX-20" value="" style="group;labelBackgroundColor=none;fontColor=#143642;" vertex="1" connectable="0" parent="1">
          <mxGeometry x="535" y="852" width="120" height="30" as="geometry" />
        </mxCell>
        <mxCell id="YH-CRLP42BkAAgdWbxsX-21" value="" style="endArrow=none;html=1;rounded=0;labelBackgroundColor=none;strokeColor=#A8201A;fontColor=default;" edge="1" parent="YH-CRLP42BkAAgdWbxsX-20">
          <mxGeometry width="50" height="50" relative="1" as="geometry">
            <mxPoint as="sourcePoint" />
            <mxPoint x="120" as="targetPoint" />
          </mxGeometry>
        </mxCell>
        <mxCell id="YH-CRLP42BkAAgdWbxsX-22" value="" style="endArrow=none;html=1;rounded=0;labelBackgroundColor=none;strokeColor=#A8201A;fontColor=default;" edge="1" parent="YH-CRLP42BkAAgdWbxsX-20">
          <mxGeometry width="50" height="50" relative="1" as="geometry">
            <mxPoint y="30" as="sourcePoint" />
            <mxPoint x="120" y="30" as="targetPoint" />
          </mxGeometry>
        </mxCell>
        <mxCell id="YH-CRLP42BkAAgdWbxsX-23" value="BlockChain" style="text;html=1;align=center;verticalAlign=middle;resizable=0;points=[];autosize=1;strokeColor=none;fillColor=none;labelBackgroundColor=none;fontColor=#143642;" vertex="1" parent="1">
          <mxGeometry x="545" y="850" width="80" height="30" as="geometry" />
        </mxCell>
        <mxCell id="YH-CRLP42BkAAgdWbxsX-24" value="Transaction Card&lt;div&gt;Generation&lt;/div&gt;" style="shape=parallelogram;perimeter=parallelogramPerimeter;whiteSpace=wrap;html=1;fixedSize=1;labelBackgroundColor=none;fillColor=#FAE5C7;strokeColor=#0F8B8D;fontColor=#143642;" vertex="1" parent="1">
          <mxGeometry x="710" y="700" width="130" height="60" as="geometry" />
        </mxCell>
      </root>
    </mxGraphModel>
  </diagram>
</mxfile>
